<svg xmlns="http://www.w3.org/2000/svg" xmlns:xlink="http://www.w3.org/1999/xlink" version="1.1" id="Layer_1" x="0px" y="0px" viewBox="5 0 30 30" enable-background="new 5 0 30 30" xml:space="preserve">
  <path class="bar third" d="M32 28H8c-1.7 0-3-1.3-3-3s1.3-3 3-3h24c1.7 0 3 1.3 3 3S33.7 28 32 28z"/>
  <path class="bar second" d="M32 18H8c-1.7 0-3-1.3-3-3s1.3-3 3-3h24c1.7 0 3 1.3 3 3S33.7 18 32 18z"/>
  <path class="bar first" d="M32 8H8C6.3 8 5 6.7 5 5s1.3-3 3-3h24c1.7 0 3 1.3 3 3S33.7 8 32 8z"/>
</svg>